<?xml version="1.0" standalone="no"?>
<!DOCTYPE svg PUBLIC "-//W3C//DTD SVG 20010904//EN"
 "http://www.w3.org/TR/2001/REC-SVG-20010904/DTD/svg10.dtd">
<svg version="1.0" xmlns="http://www.w3.org/2000/svg"
 width="512.000000pt" height="512.000000pt" viewBox="0 0 512.000000 512.000000"
 preserveAspectRatio="xMidYMid meet">
<metadata>
Created by potrace 1.11, written by Peter Selinger 2001-2013
</metadata>
<g transform="translate(0.000000,512.000000) scale(0.100000,-0.100000)"
fill="#000000" stroke="none">
<path d="M2378 4945 c-2 -2 -34 -6 -73 -10 -153 -14 -422 -71 -500 -105 -11
-4 -56 -21 -100 -36 -186 -65 -469 -225 -640 -362 -108 -87 -123 -101 -224
-201 -276 -278 -489 -636 -600 -1011 -29 -95 -58 -221 -67 -285 -2 -16 -7 -43
-10 -60 -19 -113 -26 -439 -12 -585 56 -559 298 -1069 697 -1468 199 -198 387
-334 636 -457 347 -171 652 -245 1040 -251 182 -2 287 5 450 31 128 21 383 94
495 142 103 44 203 93 268 130 41 24 75 43 77 43 9 0 186 125 258 182 91 71
273 248 332 323 22 28 43 52 46 55 3 3 31 39 61 80 178 243 321 545 392 828
22 89 29 119 42 207 3 17 7 36 9 43 18 54 27 459 13 597 -30 292 -113 574
-247 840 -282 559 -756 980 -1341 1192 -96 35 -294 89 -360 99 -19 3 -42 7
-50 9 -17 5 -73 12 -180 24 -68 8 -405 12 -412 6z m472 -229 c19 -3 62 -11 95
-17 275 -48 575 -166 805 -317 58 -37 114 -75 125 -84 179 -144 315 -277 416
-408 71 -92 139 -187 139 -195 0 -2 17 -33 38 -67 150 -245 267 -619 288 -923
10 -148 5 -374 -11 -455 -3 -14 -7 -43 -10 -65 -21 -176 -103 -432 -201 -631
-51 -104 -189 -327 -225 -364 -8 -8 -27 -33 -44 -55 -44 -60 -250 -263 -331
-327 -318 -251 -755 -434 -1110 -463 -38 -4 -75 -8 -82 -11 -17 -5 -312 -5
-367 0 -110 11 -159 19 -265 40 -419 87 -798 292 -1105 600 -287 287 -482 629
-580 1016 -78 310 -87 602 -29 955 11 69 65 258 99 351 80 214 231 477 367
637 311 368 708 618 1163 732 123 31 159 38 265 51 25 3 47 7 49 9 6 6 473 -2
511 -9z"/>
<path d="M2409 4556 c-2 -2 -38 -6 -79 -10 -82 -7 -90 -8 -200 -32 -750 -160
-1353 -740 -1540 -1482 -46 -184 -59 -313 -55 -537 3 -146 9 -239 22 -305 l18
-95 1558 -3 c856 -1 1557 -5 1557 -8 0 -15 -86 -176 -127 -237 -92 -139 -252
-286 -403 -372 -461 -262 -1043 -193 -1426 168 -45 42 -101 102 -125 134 -24
32 -46 60 -49 63 -3 3 -13 19 -22 35 l-17 30 -446 3 -447 2 6 -26 c4 -14 31
-82 60 -151 157 -365 432 -688 771 -906 332 -213 717 -322 1117 -316 465 6
890 160 1254 455 360 291 626 735 709 1184 39 207 42 536 8 725 l-18 100
-1552 5 -1551 5 39 80 c61 123 125 211 229 317 302 306 729 427 1149 326 219
-53 400 -156 566 -322 55 -56 118 -129 140 -163 l40 -62 443 -1 c243 0 442 2
442 5 0 3 -15 46 -34 95 -154 397 -421 728 -783 969 -166 110 -390 212 -568
257 -96 25 -181 43 -225 49 -30 5 -66 10 -80 12 -32 6 -376 14 -381 9z"/>
</g>
</svg>
